# xmcd
#
# Track frame offsets:
#	150
#	11356
#	29487
#	48760
#	73782
#	91372
#	104812
#	121213
#	136155
#	153307
#	173714
#	191608
#	217926
#
# Disc length: 3182 seconds
#
# Revision: 1
# Processed by: cddbd v1.5.2PL0 Copyright (c) Steve Scherf et al.
# Submitted via: audiograbber 1.83.01
#
DISCID=aa0c6c0d
DTITLE=Various Artist - ASK Country Duets Vol. 1 Disc 2
DYEAR=1900
DGENRE=Karaoke
TTITLE0=Conway Twitty and Loretta Lynn - Louisiana Woman, Mississippi Man
TTITLE1=Loretta Lynn and Jack White - Portland, Oregon
TTITLE2=Willie Nelson and Ray Charles - Seven Spanish Angels
TTITLE3=Sandi Patti and Wayne Watson - Another Time Another Place
TTITLE4=Tim McGraw and Faith Hill - It's Your Love
TTITLE5=Marty Stuart and Travis Tritt - The Whiskey Ain't Workin' Anymore
TTITLE6=Patty Loveless and Travis Tritt - Out Of Control Raging Fire
TTITLE7=Waylon Jennings and Willie Nelson - A Good Hearted Woman
TTITLE8=Waylon Jennings and Willie Nelson - Luckenbach, Texas
TTITLE9=Willie Nelson and Lee Ann Womack - Mendocino County Line
TTITLE10=Willie Nelson and Merle Haggard - Pancho and Lefty
TTITLE11=Willie Nelson and Ray Price - Faded Love
TTITLE12=Data - Data Track
EXTD=
EXTT0=
EXTT1=
EXTT2=
EXTT3=
EXTT4=
EXTT5=
EXTT6=
EXTT7=
EXTT8=
EXTT9=
EXTT10=
EXTT11=
EXTT12=
PLAYORDER=
